<?xml version="1.0" standalone="no"?>
<!DOCTYPE svg PUBLIC "-//W3C//DTD SVG 20010904//EN"
 "http://www.w3.org/TR/2001/REC-SVG-20010904/DTD/svg10.dtd">
<svg version="1.0" xmlns="http://www.w3.org/2000/svg"
 width="270.000000pt" height="270.000000pt" viewBox="0 0 270.000000 270.000000"
 preserveAspectRatio="xMidYMid meet">
<metadata>
Created by potrace 1.14, written by Peter Selinger 2001-2017
</metadata>
<g transform="translate(0.000000,270.000000) scale(0.100000,-0.100000)"
fill="#000000" stroke="none">
<path d="M0 1350 l0 -1350 1350 0 1350 0 0 1350 0 1350 -1350 0 -1350 0 0
-1350z m2255 415 l0 -340 -28 -57 c-30 -60 -84 -114 -146 -145 -33 -17 -81
-18 -683 -21 l-648 -2 -2 -302 -3 -302 -150 2 -150 2 0 447 0 448 705 5 705 5
34 24 c47 34 61 75 61 181 l0 90 -751 2 -750 3 0 148 c0 81 1 149 1 152 0 3
406 4 903 3 l902 -3 0 -340z"/>
</g>
</svg>
